<?xml version="1.0" standalone="no"?>
<!DOCTYPE svg PUBLIC "-//W3C//DTD SVG 20010904//EN"
 "http://www.w3.org/TR/2001/REC-SVG-20010904/DTD/svg10.dtd">
<svg version="1.0" xmlns="http://www.w3.org/2000/svg"
 width="300.000000pt" height="300.000000pt" viewBox="0 0 300.000000 300.000000"
 preserveAspectRatio="xMidYMid meet">
<metadata>
Created by potrace 1.10, written by Peter Selinger 2001-2011
</metadata>
<g transform="translate(0.000000,300.000000) scale(0.100000,-0.100000)"
fill="#000000" stroke="none">
<path d="M1310 2770 c-24 -24 -105 -183 -160 -315 -49 -118 -135 -383 -181
-557 l-33 -127 -151 -50 c-262 -87 -460 -178 -517 -238 -53 -56 -42 -113 22
-113 16 0 158 45 315 100 158 55 291 100 296 100 4 0 6 -6 4 -12 -5 -14 -88
-557 -104 -683 -28 -211 -91 -799 -91 -847 0 -18 5 -28 14 -28 15 0 18 16 36
210 17 174 81 714 95 801 3 15 7 47 10 70 3 24 14 98 25 164 11 66 25 164 31
218 12 94 12 99 -8 119 -17 16 -27 19 -50 13 -15 -5 -30 -9 -33 -10 -21 -5
-58 -18 -75 -25 -11 -4 -45 -16 -75 -25 -30 -9 -91 -30 -135 -47 -44 -17 -84
-31 -90 -33 -5 -1 -17 -5 -25 -8 -181 -77 -202 -17 -28 78 79 43 225 105 248
105 9 0 20 4 26 9 5 5 65 27 134 51 69 23 131 46 138 52 14 12 40 68 46 102 2
11 11 46 20 77 9 31 18 65 20 75 3 11 9 31 15 47 6 15 8 27 5 27 -2 0 0 10 7
21 6 12 20 49 30 83 10 34 28 88 39 121 12 33 22 65 24 70 3 17 49 130 55 135
12 10 31 50 31 65 0 8 5 15 10 15 6 0 10 8 10 19 0 10 7 24 15 31 8 6 14 15
13 18 -4 14 14 52 23 52 6 0 7 5 4 10 -3 6 1 10 10 10 9 0 13 5 10 10 -3 6 -2
10 4 10 24 0 22 -24 -9 -150 -6 -24 -15 -49 -19 -55 -4 -5 -16 -39 -25 -75
-10 -36 -23 -78 -29 -95 -7 -16 -12 -34 -14 -40 -1 -5 -4 -20 -7 -32 -3 -13
-8 -32 -10 -43 -3 -11 -7 -23 -9 -28 -3 -4 -8 -23 -11 -43 -3 -19 -12 -62 -21
-95 -8 -32 -17 -73 -20 -91 -2 -18 -9 -50 -15 -73 -13 -50 -7 -73 24 -89 19
-11 35 -9 97 9 41 12 80 27 88 33 14 12 30 48 37 84 2 12 9 34 14 48 5 14 7
25 4 25 -4 0 -1 7 6 15 6 8 9 19 5 25 -3 5 -1 10 5 10 6 0 8 5 5 10 -3 6 -1
10 4 10 6 0 11 6 11 14 0 8 6 16 14 19 15 6 15 7 2 -129 -4 -42 -1 -55 18 -77
20 -23 27 -25 54 -18 17 5 33 7 36 3 3 -3 23 0 43 6 92 28 177 45 293 58 30 3
57 9 60 13 3 3 16 7 30 8 14 0 45 4 70 8 59 9 136 17 182 18 20 1 34 6 31 10
-2 4 10 7 29 6 18 -2 49 2 68 8 19 6 44 11 55 11 11 0 54 3 95 7 94 8 87 8
140 0 25 -4 48 -12 51 -17 4 -6 11 -8 17 -4 5 3 13 -1 16 -10 9 -22 8 -24 -9
-24 -8 0 -15 -4 -15 -9 0 -4 -24 -9 -52 -9 -48 -1 -148 -14 -238 -29 -19 -4
-38 -6 -42 -5 -5 1 -8 -1 -8 -6 0 -4 -19 -8 -43 -9 -40 -1 -183 -29 -198 -39
-4 -2 -34 -7 -66 -10 -32 -4 -61 -11 -64 -17 -4 -5 -11 -7 -16 -4 -5 3 -34 0
-64 -8 -30 -7 -79 -16 -109 -20 -30 -4 -61 -12 -68 -18 -7 -5 -15 -7 -19 -4
-3 4 -12 2 -20 -5 -7 -6 -16 -8 -19 -5 -4 3 -23 0 -43 -8 -20 -7 -68 -21 -108
-30 -101 -24 -113 -39 -117 -154 -2 -51 -7 -95 -10 -98 -3 -3 -2 -18 1 -34 3
-18 1 -29 -6 -29 -19 0 -39 65 -47 149 -8 99 -22 117 -86 107 -60 -10 -144
-40 -166 -60 -18 -15 -37 -80 -46 -151 -2 -17 -8 -48 -14 -70 -5 -22 -10 -47
-11 -55 0 -8 -7 -58 -16 -110 -55 -332 -69 -422 -85 -565 -6 -55 -13 -111 -15
-125 -6 -42 -14 -112 -20 -175 -8 -85 -14 -145 -25 -264 -13 -139 -13 -141 9
-141 17 0 20 10 25 82 30 372 82 785 151 1193 66 391 57 361 118 379 29 9 73
22 100 30 l47 15 0 -67 c0 -133 47 -246 99 -240 l26 3 6 158 c3 86 8 159 10
162 12 11 304 81 544 129 352 71 428 84 618 106 88 10 164 23 169 28 15 15 1
60 -28 87 -30 28 -101 45 -184 45 -127 0 -787 -101 -1002 -154 l-98 -23 0 25
c0 13 7 71 15 128 9 58 13 109 10 114 -11 17 -43 11 -73 -15 -35 -30 -56 -78
-86 -199 l-22 -90 -64 -16 c-36 -9 -74 -20 -86 -24 -20 -6 -20 -3 13 146 40
186 90 366 150 553 50 154 53 173 29 210 -20 30 -49 32 -76 5z"/>
</g>
</svg>
