<?xml version="1.0" standalone="no"?>
<!DOCTYPE svg PUBLIC "-//W3C//DTD SVG 20010904//EN"
 "http://www.w3.org/TR/2001/REC-SVG-20010904/DTD/svg10.dtd">
<svg version="1.0" xmlns="http://www.w3.org/2000/svg"
 width="900.000000pt" height="900.000000pt" viewBox="0 0 900.000000 900.000000"
 preserveAspectRatio="xMidYMid meet">
<metadata>
Created by potrace 1.10, written by Peter Selinger 2001-2011
</metadata>
<g transform="translate(0.000000,900.000000) scale(0.100000,-0.100000)"
fill="#977669" stroke="none">
<path d="M3960 8336 c-33 -22 -89 -84 -103 -116 -4 -8 -16 -28 -26 -45 -33
-51 -182 -342 -239 -465 -16 -36 -48 -103 -70 -150 -22 -47 -50 -110 -62 -140
-12 -30 -27 -68 -34 -85 -8 -16 -21 -50 -31 -75 -9 -25 -23 -58 -31 -75 -7
-16 -16 -42 -20 -58 -3 -15 -10 -30 -15 -33 -5 -3 -9 -12 -9 -21 0 -8 -6 -29
-13 -46 -21 -49 -77 -217 -138 -412 -17 -55 -37 -115 -45 -133 -8 -18 -14 -40
-14 -48 0 -9 -6 -30 -13 -47 -8 -18 -22 -59 -32 -92 -31 -106 -47 -159 -61
-200 -7 -22 -16 -57 -20 -78 -3 -20 -10 -40 -15 -43 -5 -3 -9 -15 -9 -27 0
-12 -6 -42 -14 -67 -8 -25 -22 -72 -31 -105 -9 -33 -23 -81 -31 -106 -7 -26
-14 -53 -14 -62 0 -8 -7 -39 -16 -68 -33 -117 -43 -155 -49 -191 -5 -33 -12
-41 -50 -58 -24 -11 -52 -20 -62 -20 -10 -1 -29 -7 -43 -15 -14 -8 -35 -14
-46 -15 -12 0 -35 -7 -50 -15 -16 -8 -37 -15 -46 -15 -10 0 -32 -6 -50 -14
-18 -8 -82 -30 -143 -50 -144 -46 -208 -68 -295 -101 -25 -9 -61 -23 -80 -30
-19 -7 -71 -27 -115 -45 -44 -18 -96 -38 -115 -45 -49 -18 -188 -74 -230 -92
-19 -8 -48 -21 -65 -27 -234 -96 -497 -245 -596 -338 -120 -113 -163 -217
-123 -302 26 -53 71 -68 185 -63 94 4 179 25 284 68 28 12 194 69 230 79 38
10 91 29 132 47 17 7 37 13 45 13 8 0 18 4 24 9 5 5 25 14 44 19 41 12 97 32
125 44 11 4 34 13 50 18 17 5 75 25 130 45 55 20 114 40 130 45 39 11 92 29
133 46 18 8 39 14 47 14 8 0 29 6 47 14 18 8 80 29 138 47 58 17 119 38 137
46 17 7 38 13 46 13 9 0 19 5 22 10 3 6 15 10 26 10 21 0 22 -10 8 -85 -10
-55 -32 -197 -54 -350 -8 -55 -21 -143 -29 -195 -8 -52 -22 -141 -30 -197 -9
-57 -23 -149 -32 -205 -8 -57 -22 -146 -30 -198 -8 -52 -22 -140 -30 -195 -7
-55 -20 -143 -28 -195 -48 -316 -89 -636 -115 -880 -6 -52 -15 -124 -21 -160
-6 -36 -15 -110 -20 -165 -18 -191 -38 -370 -44 -395 -4 -14 -11 -68 -16 -120
-5 -52 -17 -156 -25 -230 -9 -74 -22 -207 -30 -295 -8 -88 -19 -214 -25 -280
-6 -66 -15 -154 -20 -195 -6 -41 -15 -124 -20 -185 -6 -60 -13 -122 -16 -137
l-6 -28 329 0 330 0 17 198 c9 108 22 251 27 317 6 66 15 170 19 230 4 61 13
155 19 210 11 93 23 199 52 465 6 58 15 146 19 195 7 90 18 181 46 375 8 58
14 123 14 145 0 22 5 58 10 80 6 22 14 81 19 130 8 86 15 136 42 305 6 41 13
91 15 110 3 19 11 79 19 133 8 53 22 143 30 200 9 56 23 134 31 172 8 39 14
81 14 95 0 14 6 57 14 95 8 39 22 115 31 170 9 55 22 136 30 180 7 44 21 125
30 180 8 55 21 127 27 160 6 33 14 83 18 110 11 78 69 383 100 520 6 28 14 65
18 84 4 19 14 37 22 41 20 10 106 36 287 86 32 9 68 20 79 24 12 5 42 12 68
15 25 4 49 11 52 16 9 15 64 11 64 -5 0 -8 -6 -16 -12 -18 -9 -3 -7 -12 6 -33
15 -23 20 -58 26 -200 4 -94 12 -181 19 -193 6 -11 11 -38 11 -59 0 -22 7 -48
15 -59 8 -10 15 -29 15 -41 0 -45 71 -175 120 -223 70 -68 148 -77 198 -22 22
25 22 30 22 291 0 146 5 309 10 361 6 52 13 138 16 190 7 101 14 120 46 120
11 0 41 6 67 14 74 23 233 67 326 90 33 8 80 20 105 27 25 7 63 16 85 20 22 4
60 13 85 19 126 33 241 59 365 85 44 9 100 21 125 27 25 6 68 14 95 18 28 5
63 13 78 19 16 6 40 11 55 11 25 0 66 8 229 46 34 8 72 14 85 14 12 0 55 7 93
16 102 23 196 42 230 48 17 2 48 9 70 14 65 16 288 62 420 86 44 8 118 22 165
30 47 9 101 16 120 16 19 0 60 7 90 15 30 8 70 15 89 15 18 0 70 7 115 15 116
21 612 75 685 75 109 0 202 57 200 123 -1 76 -73 185 -153 232 -100 58 -298
95 -516 95 -151 0 -212 -5 -470 -41 -47 -6 -101 -13 -120 -15 -19 -2 -79 -11
-132 -19 -54 -8 -142 -21 -195 -29 -54 -8 -132 -20 -173 -26 -41 -7 -109 -16
-150 -20 -41 -4 -106 -13 -145 -18 -226 -34 -283 -42 -310 -42 -28 0 -72 -7
-255 -41 -36 -7 -87 -15 -115 -19 -27 -4 -79 -12 -115 -19 -36 -7 -101 -19
-145 -27 -126 -23 -333 -65 -440 -89 -33 -8 -94 -21 -135 -30 -87 -20 -165
-38 -235 -56 -27 -7 -72 -13 -100 -13 -42 -1 -50 2 -54 19 -7 40 37 404 71
575 6 30 13 79 16 108 3 46 1 57 -19 78 -29 31 -92 32 -148 3 -42 -22 -146
-126 -162 -163 -5 -12 -13 -28 -18 -36 -5 -8 -17 -33 -26 -55 -10 -22 -24 -53
-31 -68 -8 -16 -14 -35 -14 -44 0 -8 -6 -29 -14 -46 -8 -18 -19 -52 -26 -77
-25 -101 -41 -167 -50 -210 -4 -25 -13 -56 -18 -70 -5 -14 -12 -46 -16 -71 -8
-52 -35 -84 -81 -94 -16 -3 -54 -13 -82 -20 -29 -8 -77 -22 -105 -30 -29 -8
-64 -16 -78 -18 -14 -3 -51 -12 -84 -21 -65 -17 -76 -15 -76 17 0 26 25 150
46 223 8 28 14 61 14 73 0 12 6 47 14 79 8 31 22 93 31 137 9 44 23 103 31
131 8 28 14 59 14 69 0 10 6 41 14 69 14 50 33 122 62 241 8 33 22 85 30 115
8 30 21 78 29 105 24 93 46 170 57 200 5 17 14 46 18 65 4 19 12 49 18 65 5
17 17 55 26 85 23 77 103 329 117 365 6 17 14 44 19 60 8 28 16 53 45 135 7
19 21 62 30 95 10 33 25 78 34 99 10 25 15 70 16 130 0 82 -3 95 -27 132 -61
94 -134 119 -208 70z"/>
</g>
</svg>
